# Blender 3.6.1
# www.blender.org
o Plane
v -0.810811 0.000000 -0.000000
v 0.810811 0.000000 -0.000000
v -0.810811 0.586928 -0.000000
v 0.810811 0.586928 -0.000000
v -0.762162 0.000000 -0.000000
v 0.762162 0.000000 -0.000000
v 0.158530 2.000000 0.000000
v -0.152432 2.000000 0.000000
v 0.762162 0.586928 -0.000000
v -0.762162 0.586928 -0.000000
v -0.762162 1.455967 0.000000
v 0.762162 1.455967 0.000000
v -0.461870 1.809589 0.000000
v 0.467114 1.809589 0.000000
v -0.810811 0.000000 -0.800000
v 0.810811 0.000000 -0.800000
v -0.810811 0.586928 -0.800000
v 0.810811 0.586928 -0.800000
v -0.762162 0.000000 -0.800000
v 0.762162 0.000000 -0.800000
v 0.158530 2.000000 -0.800000
v -0.152432 2.000000 -0.800000
v 0.762162 0.586928 -0.800000
v -0.762162 0.586928 -0.800000
v -0.762162 1.455967 -0.800000
v 0.762162 1.455967 -0.800000
v -0.461870 1.809589 -0.800000
v 0.467114 1.809589 -0.800000
v -0.810811 0.586928 -0.000000
v -0.810811 0.586928 -0.000000
v -0.810811 0.000000 -0.000000
v -0.810811 0.000000 -0.000000
v 0.762162 0.000000 -0.000000
v 0.810811 0.000000 -0.000000
v 0.810811 0.000000 -0.000000
v 0.810811 0.586928 -0.000000
v 0.810811 0.586928 -0.000000
v -0.762162 0.586928 -0.000000
v -0.762162 0.586928 -0.000000
v -0.762162 0.000000 -0.000000
v 0.158530 2.000000 0.000000
v -0.152432 2.000000 0.000000
v 0.762162 0.586928 -0.000000
v 0.762162 0.586928 -0.000000
v -0.461870 1.809589 0.000000
v 0.467114 1.809589 0.000000
v -0.762162 1.455967 0.000000
v -0.762162 1.455967 0.000000
v 0.762162 1.455967 0.000000
v 0.762162 1.455967 0.000000
v -0.810811 0.586928 -0.800000
v -0.810811 0.586928 -0.800000
v -0.810811 0.000000 -0.800000
v -0.810811 0.000000 -0.800000
v 0.762162 0.000000 -0.800000
v 0.810811 0.000000 -0.800000
v 0.810811 0.000000 -0.800000
v 0.810811 0.586928 -0.800000
v 0.810811 0.586928 -0.800000
v -0.762162 0.586928 -0.800000
v -0.762162 0.586928 -0.800000
v -0.762162 0.000000 -0.800000
v 0.158530 2.000000 -0.800000
v -0.152432 2.000000 -0.800000
v 0.762162 0.586928 -0.800000
v 0.762162 0.586928 -0.800000
v -0.461870 1.809589 -0.800000
v 0.467114 1.809589 -0.800000
v -0.762162 1.455967 -0.800000
v -0.762162 1.455967 -0.800000
v 0.762162 1.455967 -0.800000
v 0.762162 1.455967 -0.800000
vn -0.0000 -0.0000 -1.0000
vn -0.0000 -0.0000 1.0000
vn 1.0000 -0.0000 -0.0000
vn -0.0000 -1.0000 -0.0000
vn -1.0000 -0.0000 -0.0000
vn -0.0000 1.0000 -0.0000
vn 0.7622 -0.6473 -0.0000
vn -0.7678 -0.6407 -0.0000
vn 0.5241 -0.8517 -0.0000
vn -0.5251 -0.8510 -0.0000
vt 0.249313 0.765449
vt 0.256250 0.681250
vt 0.249313 0.681250
vt 0.025000 0.765449
vt 0.031937 0.681250
vt 0.025000 0.681250
vt 0.031937 0.765449
vt 0.118887 0.968164
vt 0.207237 0.940848
vt 0.074760 0.940848
vt 0.031937 0.890119
vt 0.249313 0.890119
vt 0.163232 0.968164
vt 0.256250 0.765449
vt 0.035645 0.785138
vt 0.035645 0.835868
vt 0.035645 0.863184
s 0
f 43/1/1 34/2/1 33/3/1
f 29/4/1 40/5/1 31/6/1
f 38/7/1 33/3/1 40/5/1
f 42/8/1 46/9/1 45/10/1
f 47/11/1 43/1/1 38/7/1
f 45/10/1 49/12/1 47/11/1
f 56/2/2 65/1/2 55/3/2
f 62/5/2 51/4/2 53/6/2
f 55/3/2 60/7/2 62/5/2
f 68/9/2 64/8/2 67/10/2
f 65/1/2 69/11/2 60/7/2
f 71/12/2 67/10/2 69/11/2
f 39/7/3 70/11/3 48/11/3
f 8/8/4 21/13/4 7/13/4
f 50/12/5 66/1/5 44/1/5
f 9/1/4 59/14/4 37/14/4
f 32/6/3 52/4/3 30/4/3
f 35/2/6 20/3/6 6/3/6
f 11/15/7 27/16/7 13/16/7
f 4/14/5 16/2/5 2/2/5
f 14/16/8 26/15/8 12/15/8
f 3/4/4 24/7/4 10/7/4
f 13/16/9 22/17/9 8/17/9
f 5/5/6 15/6/6 1/6/6
f 7/17/10 28/16/10 14/16/10
f 6/3/6 19/5/6 5/5/6
f 43/1/1 36/14/1 34/2/1
f 29/4/1 38/7/1 40/5/1
f 38/7/1 43/1/1 33/3/1
f 42/8/1 41/13/1 46/9/1
f 47/11/1 49/12/1 43/1/1
f 45/10/1 46/9/1 49/12/1
f 56/2/2 58/14/2 65/1/2
f 62/5/2 60/7/2 51/4/2
f 55/3/2 65/1/2 60/7/2
f 68/9/2 63/13/2 64/8/2
f 65/1/2 71/12/2 69/11/2
f 71/12/2 68/9/2 67/10/2
f 39/7/3 61/7/3 70/11/3
f 8/8/4 22/8/4 21/13/4
f 50/12/5 72/12/5 66/1/5
f 9/1/4 23/1/4 59/14/4
f 32/6/3 54/6/3 52/4/3
f 35/2/6 57/2/6 20/3/6
f 11/15/7 25/15/7 27/16/7
f 4/14/5 18/14/5 16/2/5
f 14/16/8 28/16/8 26/15/8
f 3/4/4 17/4/4 24/7/4
f 13/16/9 27/16/9 22/17/9
f 5/5/6 19/5/6 15/6/6
f 7/17/10 21/17/10 28/16/10
f 6/3/6 20/3/6 19/5/6
